<?xml version="1.0" encoding="UTF-8"?>
<svg id="Layer_2" data-name="Layer 2" xmlns="http://www.w3.org/2000/svg" viewBox="0 0 35.5 37.88">
  <defs>
    <style>
      .cls-1 {
        fill: #6dcef8;
        stroke-width: 0px;
      }
    </style>
  </defs>
  <g id="Layer_5" data-name="Layer 5">
    <g>
      <path class="cls-1"
        d="m17.59,0c0,.97.07,1.95-.01,2.91-.19,2.26-.38,4.53-.7,6.77-.19,1.39-.71,2.71-1.51,3.89-1.13,1.66-2.78,2.54-4.66,3.06-2.04.57-4.13.77-6.23.87-1.37.07-2.74.08-4.1.11-.13,0-.25.03-.37.04,0,.05,0,.11,0,.16,1.03,0,2.07-.03,3.1,0,2.55.09,5.09.26,7.57.93,2.62.7,4.59,2.16,5.58,4.77.61,1.61.95,3.29,1.06,5,.14,2.13.21,4.27.32,6.4,0,.19.03.39.04.58.05,0,.11,0,.16,0,0-1.07-.03-2.14,0-3.2.09-2.5.28-4.98.89-7.42.82-3.28,2.85-5.32,6.13-6.15,2.99-.76,6.05-.87,9.11-.94.51-.01,1.02,0,1.53,0,0-.05,0-.11,0-.16-.27,0-.55,0-.82,0-2.99-.01-5.98-.11-8.93-.73-2.22-.46-4.27-1.28-5.64-3.23-.94-1.35-1.39-2.88-1.69-4.47-.49-2.63-.6-5.29-.63-7.96,0-.41,0-.82,0-1.23-.07,0-.14,0-.2,0Z" />
      <path class="cls-1"
        d="m24.53,31.19c0,.18.01.37,0,.55-.04.43-.07.85-.13,1.28-.04.26-.13.51-.29.73-.21.31-.52.48-.88.58-.38.11-.78.14-1.17.16-.26.01-.52.01-.77.02-.02,0-.05,0-.07,0,0,0,0,.02,0,.03.19,0,.39,0,.58,0,.48.02.96.05,1.43.17.49.13.86.41,1.05.9.12.3.18.62.2.94.03.4.04.8.06,1.21,0,.04,0,.07,0,.11.01,0,.02,0,.03,0,0-.2,0-.4,0-.6.02-.47.05-.94.17-1.4.16-.62.54-1,1.16-1.16.56-.14,1.14-.16,1.72-.18.1,0,.19,0,.29,0,0-.01,0-.02,0-.03-.05,0-.1,0-.15,0-.56,0-1.13-.02-1.68-.14-.42-.09-.8-.24-1.06-.61-.18-.25-.26-.54-.32-.84-.09-.5-.11-1-.12-1.5,0-.08,0-.15,0-.23-.01,0-.03,0-.04,0Z" />
    </g>
  </g>
</svg>